<svg width="96" height="96" viewBox="0 0 96 96" fill="none" xmlns="http://www.w3.org/2000/svg">
<circle cx="48" cy="48" r="48" fill="#C1DCDC"/>
<g clip-path="url(#clip0_10_115)">
<path d="M37.1362 31.3207C36.9886 31.1309 36.8023 30.9746 36.5897 30.8623C36.3771 30.75 36.143 30.6842 35.903 30.6693C35.663 30.6544 35.4225 30.6907 35.1977 30.7759C34.9728 30.8611 34.7686 30.9931 34.5987 31.1632L32.0137 33.7507C30.8062 34.9607 30.3612 36.6732 30.8887 38.1757C33.078 44.3947 36.6394 50.041 41.3087 54.6957C45.9635 59.3649 51.6097 62.9263 57.8287 65.1157C59.3312 65.6432 61.0437 65.1982 62.2537 63.9907L64.8387 61.4057C65.0088 61.2358 65.1409 61.0316 65.226 60.8067C65.3112 60.5819 65.3475 60.3414 65.3326 60.1014C65.3177 59.8614 65.2519 59.6274 65.1396 59.4147C65.0273 59.2021 64.871 59.0158 64.6812 58.8682L58.9137 54.3832C58.7109 54.2259 58.475 54.1167 58.2238 54.0639C57.9726 54.0111 57.7127 54.016 57.4637 54.0782L51.9887 55.4457C51.2579 55.6284 50.4922 55.6187 49.7663 55.4176C49.0403 55.2165 48.3788 54.8309 47.8462 54.2982L41.7062 48.1557C41.1731 47.6233 40.787 46.9619 40.5855 46.236C40.3839 45.51 40.3738 44.7443 40.5562 44.0132L41.9262 38.5382C41.9884 38.2892 41.9933 38.0293 41.9405 37.7781C41.8877 37.527 41.7785 37.2911 41.6212 37.0882L37.1362 31.3207ZM32.7112 29.2782C33.1487 28.8406 33.6742 28.5011 34.253 28.2821C34.8318 28.0632 35.4505 27.9699 36.0681 28.0085C36.6857 28.047 37.2881 28.2165 37.8351 28.5057C38.3822 28.7949 38.8615 29.1971 39.2412 29.6857L43.7262 35.4507C44.5487 36.5082 44.8387 37.8857 44.5137 39.1857L43.1462 44.6607C43.0755 44.9443 43.0793 45.2413 43.1573 45.523C43.2352 45.8047 43.3847 46.0614 43.5912 46.2682L49.7337 52.4107C49.9408 52.6176 50.1979 52.7673 50.4801 52.8453C50.7622 52.9233 51.0597 52.9269 51.3437 52.8557L56.8162 51.4882C57.4577 51.3278 58.1273 51.3154 58.7744 51.4518C59.4214 51.5882 60.029 51.87 60.5512 52.2757L66.3162 56.7607C68.3887 58.3732 68.5787 61.4357 66.7237 63.2882L64.1387 65.8732C62.2887 67.7232 59.5237 68.5357 56.9462 67.6282C50.3491 65.3071 44.3594 61.5303 39.4212 56.5782C34.4694 51.6408 30.6927 45.6519 28.3712 39.0557C27.4662 36.4807 28.2787 33.7132 30.1287 31.8632L32.7137 29.2782H32.7112ZM55.5012 29.2507C55.5012 28.9192 55.6329 28.6013 55.8673 28.3669C56.1017 28.1324 56.4197 28.0007 56.7512 28.0007H66.7512C67.0827 28.0007 67.4006 28.1324 67.6351 28.3669C67.8695 28.6013 68.0012 28.9192 68.0012 29.2507V39.2507C68.0012 39.5823 67.8695 39.9002 67.6351 40.1346C67.4006 40.369 67.0827 40.5007 66.7512 40.5007C66.4197 40.5007 66.1017 40.369 65.8673 40.1346C65.6329 39.9002 65.5012 39.5823 65.5012 39.2507V32.2682L55.1362 42.6357C54.9015 42.8705 54.5831 43.0023 54.2512 43.0023C53.9192 43.0023 53.6009 42.8705 53.3662 42.6357C53.1315 42.401 52.9996 42.0827 52.9996 41.7507C52.9996 41.4188 53.1315 41.1005 53.3662 40.8657L63.7337 30.5007H56.7512C56.4197 30.5007 56.1017 30.369 55.8673 30.1346C55.6329 29.9002 55.5012 29.5823 55.5012 29.2507Z" fill="#1E1E1E"/>
</g>
<defs>
<clipPath id="clip0_10_115">
<rect width="40" height="40" fill="white" transform="translate(28 28)"/>
</clipPath>
</defs>
</svg>
